<svg width="96" height="96" fill="none" xmlns="http://www.w3.org/2000/svg"><path fill-rule="evenodd" clip-rule="evenodd" d="M38.45 34.93l-.017-.02-.016-.016-.016-.012-.013-.01-.016-.01-.013-.006-.013-.004h-.026l-.007.004h-.006l-.007.003-.006.003-.013.01-.01.01-.013.012-.01.017-.009.019-.168 21.38.016.44.023.203.029.191.042.178.048.168.059.155.064.146.078.129.084.123.09.11.104.097.11.084.12.074.128.061.14.052.358.113.495.133 1.406.32.013.022.016.023.01.029.012.03.01.035.01.038.016.084.01.1.006.114v.268l-.016.268-.01.114-.013.1-.013.087-.016.074-.016.059-.01.022-.01.023-5.568-.155-3.349.077-2.175.078-.032-.068-.026-.078-.023-.084-.02-.093-.018-.1-.013-.107-.017-.243-.003-.123.003-.113.007-.106.01-.094.016-.084.02-.075.012-.035.013-.032.013-.03.016-.025 1.451-.233.501-.097.35-.08.22-.082.2-.09.184-.1.161-.11.078-.058.068-.059.065-.06.06-.066.056-.064.052-.071.048-.068.042-.074.074-.162.068-.188.062-.213.051-.24.046-.267.038-.294.059-.666.332-11.668.127-11.358-.02-.39-.023-.182-.032-.171-.042-.165-.048-.152-.062-.142-.068-.133-.077-.126-.087-.113-.097-.103-.104-.094-.116-.087-.123-.075-.133-.068-.139-.054-.248-.055-.537-.114-1.936-.397-.016-.023-.016-.022-.013-.03-.013-.029-.01-.035-.01-.039-.019-.087-.013-.1-.01-.113-.006-.127v-.281l.007-.126.01-.11.012-.093.02-.078.01-.035.009-.03.013-.025.013-.023.016-.016.006-.01.01-.006 2.848.077 4.56.075.007.019.019.042.078.139.29.504 1.035 1.755 3.187 5.34 3.345 5.61 1.913 3.278.837 1.428.3.511 2.199 3.74.436.756.188.352.168.346.145.343.123.349.106.359.084.374.052.356.032.34.014.326-.004.317-.022.316-.042.314-.052.317-.068.323-.042.155-.052.152-.123.307-.151.294-.172.281-.187.262-.19.236-.192.21-.18.175-.062.045-.068.039-.074.035-.084.032-.09.026-.095.023-.2.036-.213.022-.213.013-.404.007v-2.741l.17-.087.156-.104.142-.12.126-.135.11-.146.09-.158.078-.168.055-.178.039-.184.023-.19v-.198l-.02-.2-.039-.204-.058-.204-.08-.203-.1-.204-.062-.103-.036-.055-2.505-3.943-4.01-6.151-3.747-5.734-1.218-1.884-.346-.553-.097-.161-.039-.078zm11.366 24.089v-2.744 2.744zM49.6 31.598l.003 10.782-1.315 2.246-1.329-2.246.058-10.782-.032-.954-.016-.323-.02-.22-.038-.336-.026-.152-.026-.139-.035-.13-.036-.112-.042-.107-.045-.09-.026-.042-.03-.042-.032-.04-.035-.035-.036-.035-.042-.036-.045-.032-.045-.032-.104-.059-.116-.051-.13-.046-.138-.038-.136-.046-.145-.039-.165-.041-.181-.036-.407-.068-.466-.058-.006-.007-.007-.003-.01-.013-.01-.02-.006-.018-.01-.02-.006-.026-.013-.061-.01-.071-.01-.084-.002-.094v-.213l.006-.097.01-.084.013-.072.006-.032.01-.026.01-.026.013-.022.01-.02.012-.016.013-.013.006-.006.01-.003 1.765.051 2.324.055 2.178-.055 1.616-.051.003.003.004.003.003.003.006.007.007.01.006.012.007.013.01.016.006.02.006.02v.94l-.585.09-.481.09-.385.088-.155.045-.13.046-.148.048-.136.058-.12.065-.054.035-.052.04-.052.038-.045.042-.042.042-.039.045-.035.049-.032.048-.03.052-.022.052-.045.116-.043.13-.035.142-.03.155-.025.171-.02.181-.022.407-.03 1.064zm.006 28.297l.023.84.023.407.019.181.026.172.029.155.035.142.042.13.046.116.022.051.03.052.032.049.035.048.04.045.041.042.045.042.052.04.052.038.055.035.12.065.135.058.149.049.13.045.154.045.385.09.481.088.585.09v.941l-.006.02-.007.019-.01.016-.006.013-.006.013-.007.013-.01.01-.003.003-.003.003-1.616-.055-2.178-.055-2.324.055-1.765.055-.01-.007-.006-.003-.013-.013-.013-.02L44.4 64l-.013-.022-.01-.023-.009-.029-.006-.032-.013-.071-.01-.084-.006-.097v-.214l.003-.093.01-.084.01-.071.012-.062.007-.026.01-.02.006-.018.01-.02.01-.013.006-.003.006-.007.466-.058.407-.068.18-.035.166-.042.145-.039.136-.045.139-.039.13-.045.115-.052.104-.058.045-.032.045-.033.042-.035.036-.036.035-.035.033-.04.029-.041.026-.042.045-.09.042-.107.036-.113.035-.13.026-.139.026-.152.039-.336.012-.158.017-.217.026-.617.061-6.755 1.222-2.243 1.315 2.243v6.034l.003.44zm-.947-14.639l5.043-8.603 2.785-5.01.905-1.813.262-.624.075-.226.035-.168 4.56-.075 2.848-.077.007.006.006.01.016.016.013.023.013.026.01.029.01.035.019.078.013.093.01.11.006.126.003.14-.003.142-.006.126-.01.113-.013.1-.02.087-.01.039-.009.035-.013.03-.013.029-.016.022-.013.023-1.94.398-.536.113-.245.055-.142.054-.133.068-.123.075-.116.087-.104.094-.096.103-.088.113-.077.126-.068.133-.058.142-.052.152-.042.165-.032.171-.023.181-.016.391.126 11.358.333 11.668.055.666.038.294.046.268.055.24.058.212.068.188.077.162.04.074.047.068.052.07.055.065.062.065.064.062.071.058.075.058.161.11.184.1.2.09.224.081.346.081.5.097 1.455.233.013.026.016.029.013.032.01.035.02.075.015.084.013.094.007.106v.236l-.02.243-.013.106-.019.1-.02.094-.022.084-.026.078-.029.068-2.175-.078-3.349-.077-5.568.155-.013-.023-.01-.023-.016-.058-.016-.074-.013-.087-.013-.1-.01-.114-.013-.268-.003-.142v-.126l.006-.113.01-.1.016-.084.01-.04.01-.035.013-.029.013-.029.012-.023.017-.022 1.402-.32.495-.133.362-.113.136-.052.129-.061.12-.074.11-.084.103-.097.09-.11.084-.123.078-.13.064-.145.059-.155.048-.168.042-.178.03-.19.022-.204.02-.44-.169-21.38-.013-.02-.01-.016-.012-.012-.01-.01-.013-.01-.006-.003-.007-.003h-.006l-.007-.004h-.026l-.013.004-.012.006-.017.01-.013.01-.016.012-.016.017-.013.019-7.705 12.353-1.19-2.026zm-1.923 13.76v-2.741l-.18-.094-.162-.116-.142-.133-.123-.155-.107-.168-.084-.181-.065-.194-.048-.204-.026-.21-.003-.22.016-.22.035-.222.059-.223.08-.223.104-.217.126-.213 1.664-2.79-1.186-2.02-1.522 2.54-.724 1.41-.165.362-.145.365-.12.372-.09.381-.055.356-.033.34-.013.326.007.32.022.313.04.314.054.316.071.324.04.155.05.155.124.304.151.297.172.281.184.262.19.236.191.21.185.175.055.048.068.042.07.045.078.04.175.074.187.061.197.052.204.035.2.026.194.007z" fill="url(#paint0_linear)"/><path fill-rule="evenodd" clip-rule="evenodd" d="M53.035 84.998l.773-.113.747-.074.355-.023.34-.01.32.004.294.016.468.068.472.11.465.148.466.181.456.214.442.239.427.265.407.281.375.304.356.313.333.32.3.324.269.326.23.323.19.32.077.155.068.156-.743.261-.805.233-.847.2-.876.172-.892.135-.889.097-.872.055-.84.016-.379-.016-.381-.058-.381-.097-.379-.132-.375-.165-.368-.194-.359-.226-.346-.25-.336-.274-.317-.297-.3-.314-.278-.333-.255-.346-.23-.358-.2-.365-.172-.376-.074-.158-.078-.139-.08-.12-.084-.106-.3-.343-.06-.08-.044-.088-.02-.042-.013-.048-.013-.049-.006-.055.003-.113.02-.132.042-.152.064-.175.446-1.037.508-1.086.556-1.047.287-.482.294-.44.337-.426.374-.417.85-.811.938-.763.989-.702.989-.63.947-.543.86-.446.73-.333-1.277 2.66-.76 1.464-.882 1.513-.187.281-.207.285-.226.28-.246.282-.261.278-.275.275-.595.536-.679.546-.617.44-.637.407-.727.44-1.196.72 1.012-.177 2.489-.482zm8.372-3.274l.685-.252.666-.216.32-.088.303-.077.291-.058.272-.043.436-.029.446.01.453.045.449.078.45.103.442.133.433.158.417.178.391.204.375.216.356.226.326.236.297.246.265.249.227.252.097.126.087.13-.634.38-.695.37-.736.345-.77.323-.788.294-.792.262-.785.22-.763.178-.346.058-.356.02-.362-.014-.365-.045-.368-.077-.369-.107-.362-.136-.359-.162-.349-.184-.339-.207-.323-.23-.307-.245-.291-.265-.265-.281-.246-.294-.216-.307-.094-.13-.094-.112-.094-.094-.093-.081-.33-.255-.065-.062-.058-.068-.022-.038-.023-.04-.016-.044-.016-.046-.017-.106-.003-.123.013-.146.03-.171.232-1.028.284-1.089.333-1.06.184-.495.194-.455.236-.453.272-.452.637-.902.727-.876.782-.828.795-.766.77-.675.71-.572.608-.446-.72 2.666-.447 1.48-.553 1.546-.122.294-.142.297-.162.3-.175.301-.194.304-.206.304-.453.604-.527.63-.488.521-.51.491-.589.54-.966.886.889-.36 2.185-.914zm7.31-3.594l.621-.397.611-.362.294-.159.288-.142.271-.123.259-.1.42-.126.44-.094.446-.058.459-.026h.459l.459.032.452.055.443.081.423.11.407.13.388.142.366.158.339.171.307.184.268.198.12.1.11.106-.546.514-.608.517-.656.505-.689.491-.714.465-.727.434-.724.39-.711.346-.327.133-.346.1-.355.068-.368.039-.375.006-.379-.022-.381-.049-.381-.077-.379-.104-.368-.126-.362-.149-.349-.174-.333-.194-.317-.213-.294-.233-.271-.252-.117-.107-.113-.087-.113-.071-.103-.058-.375-.175-.075-.045-.067-.055-.033-.032-.026-.033-.026-.038-.022-.043-.023-.048-.016-.052-.029-.12-.016-.145-.003-.174.032-1.06.071-1.125.12-1.115.084-.524.103-.491.142-.495.181-.504.45-1.025.543-1.018.604-.989.63-.924.627-.837.582-.718.51-.572-.19 2.767-.155 1.548-.243 1.636-.064.313-.084.323-.097.333-.117.336-.129.34-.142.342-.326.692-.395.734-.378.62-.404.595-.475.663-.776 1.082.802-.55 1.962-1.389zm6.058-5.682l.546-.44.54-.4.513-.343.243-.142.233-.123.384-.162.401-.132.414-.1.423-.075.43-.045.433-.02.427.004.42.029.404.062.394.077.375.094.359.106.33.127.303.138.269.156.123.084.11.087-.466.54-.52.543-.57.543-.6.53-.624.51-.64.482-.643.44-.634.397-.294.158-.314.13-.326.1-.34.074-.352.046-.355.019-.362-.007-.362-.032-.362-.055-.356-.08-.352-.104-.34-.126-.329-.146-.317-.168-.294-.187-.278-.207-.12-.087-.112-.071-.11-.055-.104-.042-.362-.123-.077-.036-.068-.045-.03-.026-.032-.029-.026-.032-.025-.039-.023-.042-.023-.045-.035-.11-.026-.136-.02-.162-.064-.995-.036-1.06.013-1.05.033-.498.051-.469.09-.478.124-.492.33-1.001.416-1.012.479-.986.507-.93.507-.848.482-.733.427-.589.068 2.609-.007 1.464-.084 1.555-.032.3-.049.31-.061.32-.078.324-.09.332-.104.337-.242.682-.304.727-.297.617-.327.598-.384.67-.627 1.092.698-.598.853-.753.427-.378.43-.369zm5.184-6.774l.436-.563.437-.527.43-.462.203-.2.2-.178.34-.255.362-.23.381-.203.398-.178.407-.152.414-.126.417-.104.417-.077.407-.045.397-.026.385-.004.372.017.349.038.323.062.152.039.145.045.136.048.126.058-.336.64-.391.663-.436.67-.469.665-.501.653-.517.63-.53.591-.53.547-.252.23-.278.203-.298.18-.313.156-.333.133-.343.11-.352.083-.359.062-.365.035-.365.013-.362-.013-.359-.035-.352-.058-.34-.084-.33-.107-.313-.133-.132-.055-.126-.038-.12-.026-.11-.016-.381-.03-.081-.016-.075-.025-.035-.017-.036-.022-.035-.023-.032-.032-.033-.032-.029-.043-.058-.096-.058-.123-.052-.155-.278-.95-.262-1.022-.213-1.028-.074-.494-.049-.469-.016-.488.013-.507.103-1.057.191-1.09.252-1.076.291-1.034.314-.954.31-.834.288-.678.627 2.52.307 1.426.255 1.532.032.3.023.314.006.327-.006.336-.045.695-.088.724-.139.782-.158.679-.187.662-.23.747-.375 1.225.553-.76 1.338-1.89zm3.43-8.682l.284-.669.294-.63.3-.572.149-.252.149-.227.265-.342.294-.323.317-.304.339-.285.355-.265.369-.239.378-.22.385-.194.381-.158.378-.139.372-.113.359-.09.346-.065.33-.033.154-.006h.15l.145.01.135.019-.168.714-.216.75-.256.77-.294.778-.323.773-.346.756-.365.72-.382.68-.187.294-.217.274-.242.26-.265.242-.288.22-.303.203-.32.18-.33.163-.343.139-.349.116-.352.094-.356.067-.352.042-.349.017-.346-.01-.333-.036-.142-.016h-.132l-.12.007-.11.016-.375.08-.08.01-.081-.003-.04-.006-.038-.01-.039-.016-.039-.016-.038-.026-.04-.03-.08-.077-.084-.103-.087-.133-.498-.837-.504-.911-.456-.931-.194-.453-.162-.44-.132-.465-.113-.494-.158-1.05-.081-1.106-.02-1.112.03-1.08.07-1.008.094-.895.113-.737 1.219 2.256.643 1.283.62 1.406.107.281.094.298.087.31.078.326.068.34.058.346.09.724.059.795.013.698-.02.695-.039.785-.064 1.286.346-.888.83-2.208zm1.25-9.845l.087-.727.113-.698.13-.64.074-.288.08-.265.162-.41.191-.404.223-.395.249-.378.268-.365.288-.35.3-.326.314-.307.32-.271.326-.252.324-.23.323-.2.313-.168.304-.14.291-.1.14-.035.135-.026.032.737-.003.785-.036.818-.068.837-.1.84-.126.831-.155.805-.18.77-.101.339-.133.333-.161.326-.188.317-.213.304-.236.29-.255.275-.275.259-.29.242-.301.22-.314.204-.32.177-.326.152-.33.126-.333.1-.33.072-.139.029-.126.042-.113.045-.103.052-.333.194-.078.035-.074.02-.039.006-.039.003h-.042l-.042-.006-.045-.013-.045-.013-.097-.049-.11-.074-.12-.097-.704-.643-.727-.711-.353-.369-.336-.374-.307-.375-.275-.369-.255-.404-.24-.436-.432-.957-.378-1.028-.32-1.056-.265-1.044-.204-.986-.149-.886-.093-.74 1.774 1.771.963 1.021.973 1.148.178.233.171.255.168.271.162.288.158.3.149.317.281.663.272.74.2.666.171.669.175.763.287 1.25.09-.956.198-2.379zm-.957-9.79l-.097-.727-.067-.705-.033-.653v-.3l.01-.278.052-.443.084-.443.116-.443.142-.44.168-.43.19-.42.208-.403.223-.388.242-.359.25-.336.254-.313.259-.288.259-.255.258-.224.255-.18.127-.075.122-.065.217.699.194.756.168.798.145.825.117.837.084.837.055.824.02.792-.01.355-.046.359-.074.359-.1.359-.13.355-.155.35-.178.338-.2.33-.217.317-.235.304-.25.284-.264.265-.278.243-.285.22-.294.193-.3.165-.127.071-.113.075-.093.08-.088.078-.271.288-.065.055-.068.042-.038.016-.036.016-.042.01-.042.006-.045.003-.049-.003-.107-.016-.119-.039-.142-.061-.837-.41-.88-.473-.43-.252-.416-.261-.391-.269-.356-.274-.346-.314-.34-.35-.659-.791-.62-.88-.575-.92-.514-.928-.446-.889-.366-.808-.274-.685 2.15 1.183 1.185.701.608.392.617.426.23.175.226.194.23.21.229.23.226.245.223.258.44.556.446.634.359.578.33.595.361.682.588 1.121-.151-.95-.408-2.343zm-3.794-9.564l-.243-.627-.21-.614-.171-.578-.065-.269-.051-.252-.049-.41-.02-.42.01-.427.033-.427.058-.43.08-.423.101-.414.116-.404.14-.381.151-.365.162-.346.168-.32.178-.297.184-.262.19-.23.098-.097.096-.09.343.572.336.63.324.672.306.705.285.724.255.727.227.724.187.705.068.323.035.333.013.34-.016.348-.039.35-.064.352-.088.349-.106.346-.126.339-.149.33-.162.32-.18.303-.194.288-.21.268-.224.246-.232.223-.1.097-.081.094-.071.093-.058.094-.185.327-.045.064-.052.058-.029.023-.032.023-.032.02-.036.015-.042.013-.042.01-.1.013-.117-.003-.139-.02-.84-.158-.889-.2-.443-.12-.43-.13-.407-.142-.378-.155-.378-.194-.378-.23-.76-.542-.746-.63-.711-.686-.66-.701-.591-.685-.501-.63-.394-.547 2.181.517 1.212.333.63.197.644.227.242.1.249.116.249.133.255.145.252.162.259.178.255.187.255.2.537.456.446.43.427.45.468.52.77.856-.34-.814-.87-1.998zM74.5 20.256l-.417-.51-.381-.508-.33-.488-.142-.233-.12-.223-.168-.372-.142-.387-.12-.408-.094-.42-.07-.423-.052-.43-.03-.427-.006-.423.02-.41.035-.398.048-.385.068-.362.081-.342.097-.314.11-.281.065-.126.064-.12.495.424.504.478.507.527.498.559.482.588.459.601.427.608.387.604.159.282.132.303.113.32.088.333.064.346.045.356.02.358.003.366-.023.365-.038.365-.062.359-.08.349-.1.34-.12.326-.136.313-.155.291-.065.126-.052.12-.038.113-.03.107-.077.371-.023.078-.032.07-.02.033-.022.033-.026.029-.032.029-.032.026-.04.026-.09.045-.113.035-.136.033-.843.142-.902.116-.452.042-.447.026-.426.007-.404-.017-.414-.051-.43-.088-.879-.252-.895-.34-.876-.4-.834-.436-.763-.443-.662-.427-.534-.378 2.22-.265 1.248-.107.657-.029.675-.01.259.01.268.023.278.039.284.052.291.067.294.078.298.09.3.1.643.246.55.25.536.28.602.33.979.543-.562-.653-1.416-1.59zm-6.215-4.884l-.456-.378-.424-.384-.374-.379-.165-.18-.146-.178-.21-.301-.187-.323-.172-.343-.151-.359-.133-.368-.113-.375-.094-.378-.074-.378-.049-.372-.032-.365-.016-.353V9.62l.02-.32.035-.3.058-.275.032-.123.042-.12.51.288.531.336.54.378.536.408.527.436.508.456.481.465.443.469.187.223.169.245.151.269.133.28.113.301.094.31.077.32.062.327.038.33.02.336.003.333-.016.33-.036.323-.055.316-.07.304-.094.291-.04.123-.025.12-.016.106-.01.104-.01.349-.01.074-.015.068-.013.036-.016.032-.02.032-.02.03-.028.032-.03.029-.074.055-.093.054-.12.056-.734.284-.788.275-.401.122-.394.107-.385.084-.365.062-.382.029-.397.003-.831-.062-.857-.139-.85-.193-.817-.236-.757-.256-.662-.258-.54-.24 1.952-.652 1.102-.33.585-.152.605-.132.233-.04.245-.028.255-.017.262-.006.272.003.278.017.281.022.288.036.617.1.533.123.524.148.591.188.967.304-.611-.482-1.522-1.167zm-6.713-3.552l-.385-.323-.359-.326-.32-.32-.139-.156-.123-.148-.178-.256-.161-.274-.145-.288-.127-.304-.113-.313-.097-.32-.08-.32-.062-.32-.039-.314-.029-.31-.013-.297v-.288l.017-.272.032-.255.045-.23.03-.106.035-.1.433.242.45.285.455.32.456.345.446.372.43.385.407.394.375.398.158.19.142.207.13.226.113.24.097.252.08.261.065.272.049.278.035.281.02.284v.282l-.014.28-.029.276-.045.268-.064.258-.078.246-.032.107-.023.097-.013.094-.006.084-.01.297-.006.061-.017.062-.01.025-.012.03-.017.025-.019.026-.023.026-.025.026-.062.049-.08.045-.1.045-.625.242-.669.233-.339.104-.336.087-.323.074-.31.052-.324.026-.336.003-.705-.052-.724-.12-.724-.164-.691-.2-.64-.217-.56-.22-.458-.204 1.651-.552.934-.278.495-.13.514-.113.197-.032.21-.026.217-.013.223-.006.23.006.232.013.481.049.524.084.23.051.223.055.446.127.5.158.818.255-.517-.407-1.29-.986zM42.954 84.998l-.773-.113-.747-.074-.355-.023-.34-.01-.316.004-.298.016-.468.068-.469.11-.468.148-.463.181-.455.214-.443.239-.427.265-.407.281-.375.304-.356.313-.333.32-.3.324-.268.326-.233.323-.19.32-.078.155-.068.156.743.261.805.233.85.2.876.172.892.135.889.097.872.055.84.016.379-.016.378-.058.382-.097.38-.132.373-.165.368-.194.362-.226.346-.25.333-.274.32-.297.297-.314.281-.333.256-.346.23-.358.2-.365.17-.376.075-.158.078-.139.08-.12.085-.106.3-.343.058-.08.046-.088.016-.042.016-.048.01-.049.006-.055v-.113l-.02-.132-.041-.152-.065-.175-.446-1.037-.51-1.086-.557-1.047-.287-.482-.294-.44-.337-.426-.374-.417-.847-.811-.94-.763-.987-.702-.989-.63-.947-.543-.863-.446-.73-.333 1.277 2.66.76 1.464.882 1.513.187.281.207.285.23.28.245.282.262.278.275.275.594.536.679.546.617.44.637.407.727.44 1.193.72-1.008-.177-2.492-.482zm-8.368-3.274l-.686-.252-.665-.216-.32-.088-.304-.077-.291-.058-.272-.043-.44-.029-.445.01-.45.045-.452.078-.45.103-.442.133-.43.158-.417.178-.39.204-.38.216-.351.226-.327.236-.3.246-.262.249-.226.252-.097.126-.088.13.634.38.691.37.74.345.77.323.785.294.795.262.783.22.762.178.346.058.356.02.362-.014.368-.045.365-.077.369-.107.365-.136.356-.162.349-.184.34-.207.322-.23.31-.245.288-.265.269-.281.245-.294.217-.307.093-.13.094-.112.094-.094.094-.081.33-.255.064-.062.058-.068.023-.038.022-.04.017-.044.016-.046.016-.106.003-.123-.013-.146-.029-.171-.236-1.028-.284-1.089-.33-1.06-.184-.495-.194-.455-.236-.453-.272-.452-.636-.902-.728-.876-.782-.828-.795-.766-.772-.675-.711-.572-.608-.446.724 2.666.446 1.48.553 1.546.123.294.142.297.161.3.175.301.194.304.207.304.452.604.524.63.491.521.51.491.589.54.966.886-.888-.36-2.185-.914zm-7.311-3.594l-.621-.397-.614-.362-.294-.159-.285-.142-.271-.123-.259-.1-.423-.126-.436-.094-.45-.058-.455-.026h-.46l-.458.032-.453.055-.443.081-.423.11-.407.13-.388.142-.369.158-.336.171-.307.184-.268.198-.12.1-.11.106.547.514.607.517.653.505.692.491.714.465.724.434.724.39.711.346.327.133.346.1.355.068.369.039.374.006.379-.022.381-.049.381-.077.378-.104.372-.126.359-.149.349-.174.336-.194.314-.213.297-.233.272-.252.116-.107.113-.087.11-.071.107-.058.371-.175.078-.045.068-.055.029-.032.029-.033.026-.038.022-.043.02-.048.02-.052.025-.12.016-.145.003-.174-.032-1.06-.068-1.125-.12-1.115-.083-.524-.104-.491-.142-.495-.181-.504-.45-1.025-.542-1.018-.608-.989-.63-.924-.624-.837-.585-.718-.51-.572.193 2.767.155 1.548.243 1.636.064.313.084.323.097.333.117.336.13.34.141.342.327.692.394.734.378.62.404.595.472.663.776 1.082-.799-.55-1.961-1.389zm-6.06-5.682l-.547-.44-.536-.4-.262-.181-.255-.162-.243-.142L19.14 71l-.381-.162-.4-.132-.415-.1-.426-.075-.43-.045-.43-.02-.43.004-.42.029-.404.062-.391.077-.378.094-.356.106-.333.127-.303.138-.269.156-.123.084-.11.087.466.54.52.543.57.543.6.53.627.51.64.482.64.44.637.397.294.158.314.13.326.1.34.074.349.046.358.019.36-.007.364-.032.36-.055.358-.08.352-.104.34-.126.33-.146.316-.168.294-.187.278-.207.12-.087.113-.071.11-.055.103-.042.365-.123.075-.036.068-.045.029-.026.032-.029.026-.032.026-.039.022-.042.023-.045.035-.11.026-.136.02-.162.064-.995.036-1.06-.013-1.05-.032-.498-.052-.469-.09-.478-.123-.492-.33-1.001-.417-1.012-.478-.986-.508-.93-.51-.848-.482-.733-.427-.589-.064 2.609.006 1.464.08 1.555.033.3.049.31.061.32.078.324.09.332.107.337.242.682.304.727.297.617.327.598.381.67.63 1.092-.698-.598-1.713-1.5zm-5.185-6.774l-.436-.563-.437-.527-.426-.462-.207-.2-.197-.178-.34-.255-.362-.23-.381-.203-.397-.178-.408-.152-.413-.126-.417-.104-.417-.077-.408-.045-.397-.026-.388-.004-.368.017-.35.038-.323.062-.152.039-.145.045-.136.048-.126.058.336.64.391.663.433.67.472.665.498.653.517.63.53.591.534.547.252.23.274.203.298.18.316.156.33.133.343.11.352.083.362.062.362.035.365.013.362-.013.359-.035.352-.058.343-.084.33-.107.313-.133.133-.055.126-.038.12-.026.11-.016.38-.03.081-.016.075-.025.035-.017.036-.022.035-.023.033-.032.032-.032.03-.043.057-.096.058-.123.052-.155.275-.95.262-1.022.213-1.028.078-.494.048-.469.016-.488-.013-.507-.106-1.057-.188-1.09-.252-1.076-.294-1.034-.314-.954-.31-.834-.287-.678-.624 2.52-.31 1.426-.256 1.532-.032.3-.02.314-.01.327.007.336.016.343.03.352.09.724.139.782.158.679.188.662.23.747.374 1.225-.553-.76-1.34-1.89zm-3.43-8.682l-.28-.669-.294-.63-.301-.572-.149-.252-.148-.227-.265-.342-.295-.323-.316-.304-.34-.285-.358-.265-.369-.239-.378-.22-.381-.194-.382-.158-.378-.139-.372-.113-.358-.09-.346-.065-.33-.033-.155-.006h-.149l-.142.01-.136.019.168.714.214.75.255.77.294.778.32.773.346.756.365.72.382.68.187.294.217.274.242.26.265.242.288.22.303.203.32.18.333.163.343.139.349.116.352.094.356.067.352.042.35.017.345-.01.333-.036.142-.016h.133l.12.007.11.016.374.08.08.01.082-.003.039-.006.038-.01.039-.016.039-.016.039-.026.038-.03.081-.077.084-.103.088-.133.497-.837.505-.911.455-.931.194-.453.162-.44.132-.465.113-.494.155-1.05.084-1.106.02-1.112-.03-1.08-.07-1.008-.097-.895-.11-.737-1.219 2.256-.646 1.283-.62 1.406-.104.281-.097.298-.087.31-.075.326-.067.34-.059.346-.09.724-.058.795-.013.698.02.695.038.785.065 1.286-.35-.888-.83-2.208zm-1.247-9.845l-.09-.727-.11-.698-.133-.64-.074-.288-.08-.265-.16-.41-.193-.404-.223-.395-.246-.378-.268-.365-.288-.35-.3-.326-.314-.307-.323-.271-.323-.252-.327-.23-.32-.2-.313-.168-.304-.14-.29-.1-.14-.035-.136-.026-.032.737.003.785.036.818.068.837.097.84.129.831.152.805.18.77.101.339.133.333.161.326.19.317.214.304.236.29.256.275.274.259.291.242.3.22.314.204.32.177.327.152.33.126.332.1.33.072.139.029.126.042.113.045.1.052.336.194.075.035.077.02.04.006.038.003h.042l.042-.006.042-.013.045-.013.1-.049.107-.074.12-.097.704-.643.727-.711.353-.369.336-.374.307-.375.275-.369.255-.404.24-.436.435-.957.379-1.028.32-1.056.262-1.044.206-.986.149-.886.094-.74-1.775 1.771-.963 1.021-.976 1.148-.175.233-.174.255-.165.271-.162.288-.158.3-.152.317-.281.663-.268.74-.2.666-.172.669-.174.763-.288 1.25-.09-.956-.198-2.379zm.957-9.79l.097-.727.068-.705.032-.653v-.3l-.013-.278-.051-.443-.085-.443-.113-.443-.142-.44-.168-.43-.19-.42-.21-.403-.224-.388-.239-.359-.249-.336-.255-.313-.259-.288-.258-.255-.259-.224-.255-.18-.126-.075-.123-.065-.217.699-.194.756-.17.798-.143.825-.116.837-.088.837-.055.824-.019.792.013.355.042.359.074.359.104.359.129.355.155.35.178.338.197.33.22.317.236.304.249.284.265.265.274.243.288.22.29.193.302.165.129.071.11.075.097.08.084.078.274.288.065.055.068.042.035.016.04.016.038.01.042.006.045.003.049-.003.107-.016.12-.039.141-.061.84-.41.88-.473.43-.252.417-.261.39-.269.356-.274.346-.314.34-.35.659-.791.62-.88.572-.92.514-.928.446-.889.369-.808.275-.685-2.15 1.183-1.186.701-.61.392-.618.426-.23.175-.226.194-.23.21-.229.23-.226.245-.223.258-.437.556-.446.634-.358.578-.33.595-.362.682-.591 1.121.151-.95.41-2.343zm3.791-9.564l.243-.627.213-.614.171-.578.065-.269.048-.252.049-.41.02-.42-.007-.427-.036-.427-.055-.43-.08-.423-.1-.414-.117-.404-.14-.381-.151-.365-.162-.346-.168-.32-.177-.297-.185-.262-.19-.23-.097-.097-.097-.09-.343.572-.336.63-.323.672-.307.705-.285.724-.255.727-.226.724-.188.705-.068.323-.035.333-.013.34.016.348.039.35.065.352.087.349.106.346.127.339.145.33.165.32.18.303.195.288.207.268.223.246.232.223.1.097.085.094.067.093.062.094.184.327.045.064.052.058.03.023.028.023.036.02.035.015.039.013.045.01.097.013.12-.003.139-.02.84-.158.889-.2.44-.12.43-.13.407-.142.378-.155.378-.194.378-.23.763-.542.743-.63.715-.686.659-.701.591-.685.501-.63.395-.547-2.182.517-1.215.333-.63.197-.644.227-.242.1-.246.116-.252.133-.252.145-.255.162-.259.178-.255.187-.255.2-.534.456-.446.43-.427.45-.468.52-.77.856.34-.814.866-1.998zm5.388-7.537l.417-.51.381-.508.333-.488.143-.233.12-.223.167-.372.142-.387.12-.408.094-.42.07-.423.053-.43.029-.427.006-.423-.02-.41-.035-.398-.048-.385-.068-.362-.081-.342-.097-.314-.11-.281-.065-.126-.064-.12-.495.424-.504.478-.507.527-.498.559-.482.588-.459.601-.426.608-.388.604-.158.282-.136.303-.11.32-.087.333-.068.346-.042.356-.023.358v.366l.02.365.042.365.061.359.08.349.101.34.116.326.14.313.154.291.065.126.052.12.039.113.029.107.077.371.023.078.032.07.02.033.022.033.026.029.032.029.033.026.039.026.09.045.113.035.136.033.844.142.901.116.453.042.446.026.426.007.404-.017.414-.051.43-.088.88-.252.894-.34.876-.4.83-.436.764-.443.662-.427.534-.378-2.22-.265-1.248-.107-.657-.029-.675-.01-.259.01-.268.023-.275.039-.284.052-.291.067-.294.078-.297.09-.301.1-.643.246-.55.25-.536.28-.601.33-.98.543.563-.653 1.412-1.59zm6.216-4.884l.455-.378.424-.384.378-.379.161-.18.146-.178.21-.301.19-.323.172-.343.152-.359.132-.368.113-.375.094-.378.075-.378.048-.372.03-.365.015-.353V9.62l-.02-.32-.035-.3-.055-.275-.035-.123-.039-.12-.51.288-.53.336-.54.378-.537.408-.527.436-.507.456-.482.465-.443.469-.187.223-.168.245-.152.269-.133.28-.113.301-.093.31-.078.32-.061.327-.04.33-.022.336-.003.333.016.33.036.323.055.316.07.304.094.291.04.123.025.12.02.106.006.104.013.349.01.074.016.068.013.036.016.032.016.032.023.03.025.032.03.029.074.055.097.054.116.056.734.284.792.275.4.122.395.107.384.084.366.062.381.029.398.003.83-.062.857-.139.85-.193.817-.236.754-.256.662-.258.54-.24-1.949-.652-1.102-.33-.585-.152-.608-.132-.232-.04-.243-.028-.255-.017-.262-.006-.272.003-.277.017-.282.022-.287.036-.618.1-.533.123-.524.148-.591.188-.966.304.607-.482 1.523-1.167zm6.716-3.552l.384-.323.362-.326.317-.32.14-.156.122-.148.178-.256.161-.274.142-.288.13-.304.113-.313.094-.32.08-.32.062-.32.042-.314.026-.31.016-.297v-.288l-.016-.272-.033-.255-.045-.23-.029-.106-.035-.1-.434.242-.449.285-.456.32-.455.345-.446.372-.433.385-.408.394-.375.398-.158.19-.142.207-.13.226-.113.24-.093.252-.084.261-.065.272-.049.278-.035.281-.016.284-.003.282.012.28.033.276.045.268.065.258.077.246.033.107.022.097.013.094.007.084.01.297.006.061.016.062.01.025.013.03.016.025.02.026.022.026.026.026.061.049.08.045.101.045.62.242.673.233.34.104.332.087.327.074.31.052.323.026.336.003.705-.052.724-.12.72-.164.696-.2.64-.217.559-.22.459-.204-1.652-.552-.937-.278-.495-.13-.514-.113-.197-.032-.207-.026-.216-.013-.223-.006-.23.006-.236.013-.481.049-.52.084-.233.051-.22.055-.446.127-.501.158-.818.255.514-.407 1.293-.986z" fill="url(#paint1_linear)"/><defs><linearGradient id="paint0_linear" x1="30.22" y1="45.635" x2="65.783" y2="45.635" gradientUnits="userSpaceOnUse"><stop stop-color="#A55906"/><stop offset="1" stop-color="#FECD51"/></linearGradient><linearGradient id="paint1_linear" x1="3.258" y1="51.126" x2="92.735" y2="44.868" gradientUnits="userSpaceOnUse"><stop stop-color="#A55906"/><stop offset="1" stop-color="#FECD51"/></linearGradient></defs></svg>