<svg width="97" height="17" fill="none" xmlns="http://www.w3.org/2000/svg"><path d="M18.711.854V17h-3.933V7.317L11.167 17H7.993L4.359 7.294V17H.426V.854h4.646l4.531 11.178L14.088.854h4.623zm7.161 0V17H21.94V.854h3.933zm7.184 13.11h5.152V17h-9.085V.854h3.933v13.11zm17.478.184h-6.026L43.542 17h-4.117L45.267.854h4.554L55.663 17H51.5l-.966-2.852zm-1.012-3.036l-2-5.911-1.979 5.911h3.98zM72.285 17h-3.933l-6.578-9.959V17h-3.933V.854h3.933l6.578 10.005V.854h3.933V17zm9.3-16.146c1.702 0 3.19.337 4.462 1.012 1.273.675 2.254 1.625 2.944 2.852.706 1.211 1.058 2.614 1.058 4.209 0 1.58-.352 2.982-1.058 4.209-.69 1.227-1.679 2.177-2.967 2.852-1.272.675-2.752 1.012-4.439 1.012h-6.049V.854h6.05zm-.253 12.742c1.488 0 2.645-.406 3.473-1.219.828-.813 1.242-1.963 1.242-3.45s-.414-2.645-1.242-3.473c-.828-.828-1.985-1.242-3.473-1.242H79.47v9.384h1.863zM96.58.854V17h-3.933V.854h3.933z" fill="#0D0D0D"/></svg>